<?xml version="1.0" encoding="utf-8"?>
<!-- Generator: Adobe Illustrator 21.1.0, SVG Export Plug-In . SVG Version: 6.00 Build 0)  -->
<svg version="1.1" id="Layer_1" xmlns="http://www.w3.org/2000/svg" xmlns:xlink="http://www.w3.org/1999/xlink" x="0px" y="0px"
	 viewBox="0 0 199 55.8" style="enable-background:new 0 0 199 55.8;" xml:space="preserve">
<style type="text/css">
	.st0{fill:url(#SVGID_1_);}
	.st1{fill:#459CC6;}
	.st2{fill:#005B94;}
	.st3{fill:#748A96;}
</style>
<title>sv vid-logo-plavi-1</title>
<linearGradient id="SVGID_1_" gradientUnits="userSpaceOnUse" x1="-4.647964e-07" y1="2" x2="55.755" y2="57.755" gradientTransform="matrix(1 0 0 -1 0 57.76)">
	<stop  offset="0" style="stop-color:#9DDCF9"/>
	<stop  offset="0.18" style="stop-color:#99DBF9"/>
	<stop  offset="0.34" style="stop-color:#8FD8F8"/>
	<stop  offset="0.49" style="stop-color:#7DD2F7"/>
	<stop  offset="0.64" style="stop-color:#63CBF5"/>
	<stop  offset="0.78" style="stop-color:#42C1F3"/>
	<stop  offset="0.92" style="stop-color:#1AB6F1"/>
	<stop  offset="1" style="stop-color:#00AEEF"/>
</linearGradient>
<path class="st0" d="M28.7,0L0,55.8L22.7,0H28.7z M0.1,55.7l55.7-40.4V7.9L0.1,55.7L0.1,55.7z M0.1,55.7l55.7-31.1V18L0.1,55.7
	L0.1,55.7z M40.4,0L0,55.8L47.9,0H40.4z M0.1,55.7l55.6-22.6v-6L0.1,55.7z M31.1,0L0,55.8L37.7,0L31.1,0z M55.8,4.9V0h-4.9L0,55.8
	l0,0L55.8,4.9z"/>
<path class="st1" d="M55.5,55.7h0.2c0-7.2-1.3-14.3-4-21l-3.4,1.4C51.7,42.3,54.1,48.9,55.5,55.7z"/>
<path class="st1" d="M0.2,0H0v0.2c6.9,1.4,13.5,3.8,19.6,7.2L21,4.1C14.4,1.4,7.3,0,0.2,0z"/>
<path class="st2" d="M49.6,30.3c-0.3-0.6-0.6-1.1-0.9-1.7c-0.8-1.4-1.6-2.7-2.5-4.1c-0.3-0.5-0.7-1-1-1.5c-0.9-1.2-1.9-2.4-2.9-3.6
	c-0.4-0.4-0.7-0.8-1.1-1.2c-0.6-0.6-1.2-1.3-1.8-1.9s-1.2-1.2-1.9-1.8c-0.4-0.4-0.8-0.7-1.2-1.1c-1.2-1-2.4-2-3.6-2.9
	c-0.5-0.4-1-0.7-1.5-1c-1.3-0.9-2.7-1.7-4.1-2.5c-0.6-0.3-1.1-0.6-1.7-0.9c-1.5-0.8-3-1.5-4.5-2.1l-1.4,3.4c1.3,0.7,2.7,1.5,4,2.4
	c0.5,0.3,1,0.6,1.5,1c1.2,0.8,2.4,1.7,3.6,2.6c0.4,0.3,0.9,0.7,1.3,1c1.1,0.9,2.2,1.8,3.2,2.7c0.4,0.3,0.7,0.7,1.1,1
	c0.6,0.5,1.1,1.1,1.7,1.6s1.1,1.1,1.7,1.7c0.3,0.4,0.7,0.7,1,1.1c1,1,1.9,2.1,2.8,3.2c0.3,0.4,0.7,0.9,1,1.3
	c0.9,1.2,1.8,2.4,2.6,3.6c0.3,0.5,0.7,1,1,1.5c0.8,1.3,1.6,2.6,2.4,4l3.4-1.4C51.1,33.3,50.4,31.8,49.6,30.3z"/>
<path class="st3" d="M78.2,41c-0.6-0.4-1.3-0.7-2-0.7c-0.8,0-1.3,0.3-1.3,0.9c0,1.3,3.8,1.1,3.8,3.4c0,1.2-0.9,2.1-2.7,2.1
	c-0.9,0-1.8-0.4-2.5-1l0.4-0.7c0.6,0.4,1.3,0.7,2,0.7c0.9,0,1.6-0.3,1.6-1c0-1.4-3.8-1.3-3.8-3.4c0-1.2,1-2,2.4-2
	c0.8,0,1.6,0.3,2.2,0.8L78.2,41z"/>
<path class="st3" d="M82.4,46v4.2h-1.2V39.6h0.7l0.4,0.8c0.6-0.7,1.4-1,2.2-1.1c2,0,3.1,1.7,3.1,3.7c0,2.4-1.4,3.8-3.3,3.8
	C83.6,46.8,82.9,46.5,82.4,46z M82.4,41.4v3.5c0.5,0.5,1.1,0.9,1.8,0.8c1.2,0,2.2-1.1,2.1-2.3c0-0.1,0-0.1,0-0.2
	c0-1.4-0.6-2.9-2.2-2.9C83.5,40.4,82.8,40.8,82.4,41.4L82.4,41.4z"/>
<path class="st3" d="M95.2,45.2l0.3,0.5c-0.6,0.7-1.5,1.1-2.5,1.1c-1.9,0-3.4-1.5-3.4-3.4c0-0.1,0-0.2,0-0.3c0-2.3,1.4-3.8,3.1-3.8
	c1.6-0.1,2.9,1.2,3,2.8c0,0.1,0,0.3,0,0.4l-0.4,0.8h-4.5c0,1.3,1.1,2.4,2.4,2.4c0.1,0,0.1,0,0.2,0C94.1,45.8,94.7,45.6,95.2,45.2z
	 M94.7,42.5c0-1.5-0.8-2.1-1.8-2.1c-1.1,0-2,0.9-2,2c0,0,0,0.1,0,0.1H94.7z"/>
<path class="st3" d="M103.3,45.2l0.3,0.5c-0.6,0.7-1.5,1.1-2.5,1.1c-1.9-0.1-3.4-1.6-3.3-3.5c0-0.1,0-0.1,0-0.2
	c0-2.4,1.6-3.8,3.3-3.8c0.8,0,1.6,0.3,2.3,0.8l-0.2,0.9c-0.6-0.4-1.3-0.6-2-0.6c-1.3,0.1-2.2,1.1-2.1,2.4c0,0,0,0,0,0.1
	c0,1.7,0.9,2.8,2.5,2.8C102.2,45.7,102.8,45.5,103.3,45.2z"/>
<path class="st3" d="M106.7,36.5c0.4,0,0.8,0.3,0.8,0.8c0,0,0,0,0,0c0,0.4-0.4,0.8-0.8,0.8c0,0,0,0,0,0c-0.4,0-0.8-0.3-0.8-0.8
	c0,0,0,0,0,0C105.9,36.9,106.3,36.5,106.7,36.5C106.7,36.5,106.7,36.5,106.7,36.5z M106.1,46.5v-7h1.2v7H106.1z"/>
<path class="st3" d="M112,48.3c0.2,1-0.6,2-1.6,2.1c-0.1,0-0.2,0-0.3,0c-0.5,0-1-0.2-1.4-0.5l0.3-0.5c0.3,0.1,0.5,0.2,0.8,0.2
	c0.7,0,1.1-0.5,1.1-1.5v-8.4h1.2V48.3z M110.6,37.3c0,0.4,0.3,0.8,0.8,0.8c0,0,0,0,0,0c0.4,0,0.8-0.3,0.8-0.8c0,0,0,0,0,0
	c0-0.4-0.4-0.8-0.8-0.8c0,0,0,0,0,0C111,36.5,110.6,36.9,110.6,37.3C110.6,37.3,110.6,37.3,110.6,37.3z"/>
<path class="st3" d="M117.5,39.4c2.1,0,2.7,1.2,2.7,3.1v4.1h-0.7l-0.4-0.8c-0.6,0.7-1.4,1.1-2.3,1.1c-1.1,0.1-2.1-0.7-2.2-1.8
	c0-0.1,0-0.2,0-0.3c0-1.9,1.9-2.2,3.4-2.2h1v-0.3c0-1.3-0.5-1.8-1.7-1.8c-0.7,0-1.4,0.2-2,0.6l-0.2-0.9
	C115.7,39.7,116.6,39.4,117.5,39.4z M119,43.4h-0.8c-1,0-2.4,0.1-2.4,1.3c0,0.7,0.5,1.2,1.4,1.2c0.7,0,1.4-0.3,1.8-0.9L119,43.4z"/>
<path class="st3" d="M123,46.6v-11h1.2v11H123z"/>
<path class="st3" d="M130.8,39.4c1.3,0,2.1,0.7,2.1,2.4v4.8h-1.2v-4.4c0-1.1-0.3-1.8-1.5-1.8c-0.7,0.1-1.4,0.4-1.9,0.9v5.3h-1.2v-7
	h0.7l0.4,0.8C128.9,39.7,129.9,39.4,130.8,39.4z"/>
<path class="st3" d="M138.4,39.4c2.1,0,2.7,1.2,2.7,3.1v4.1h-0.7l-0.4-0.8c-0.6,0.7-1.4,1.1-2.3,1.1c-1.1,0.1-2.1-0.7-2.2-1.8
	c0-0.1,0-0.2,0-0.3c0-1.9,1.9-2.2,3.4-2.2h1v-0.3c0-1.3-0.5-1.8-1.7-1.8c-0.7,0-1.4,0.2-2,0.6l-0.2-0.9
	C136.7,39.7,137.5,39.4,138.4,39.4z M139.9,43.4h-0.8c-1,0-2.4,0.1-2.4,1.3c0,0.7,0.5,1.2,1.4,1.2c0.7,0,1.4-0.3,1.8-0.9V43.4z"/>
<path class="st3" d="M149.6,40.1c0.6-0.5,1.3-0.7,2-0.8c2,0,3.1,1.7,3.1,3.7c0,2.4-1.4,3.8-3.1,3.8c-0.9,0-1.7-0.4-2.2-1.1l-0.4,0.8
	h-0.7v-11h1.2L149.6,40.1z M149.6,41.1v3.6c0.4,0.7,1.1,1,1.8,1c1.2-0.1,2.2-1.1,2.1-2.3c0-0.1,0-0.1,0-0.2c0-1.4-0.6-2.9-2.1-2.9
	C150.7,40.4,150,40.7,149.6,41.1L149.6,41.1z"/>
<path class="st3" d="M159.9,46.8c-2,0-3.1-1.7-3.1-3.7c0-2.4,1.4-3.8,3.5-3.8s3.1,1.7,3.1,3.7C163.4,45.4,162,46.8,159.9,46.8z
	 M160,40.3c-1.3,0-2,1.3-2,2.5c0,1.4,0.6,2.9,2.1,2.9c1.3,0,2-1.3,2-2.5C162.2,41.9,161.6,40.3,160,40.3z"/>
<path class="st3" d="M165.9,46.6v-11h1.2v11H165.9z"/>
<path class="st3" d="M173.7,39.4c1.3,0,2.1,0.7,2.1,2.4v4.8h-1.2v-4.4c0-1.1-0.3-1.8-1.5-1.8c-0.7,0.1-1.4,0.4-1.9,0.9v5.3h-1.2v-7
	h0.7l0.4,0.8C171.8,39.7,172.8,39.4,173.7,39.4z"/>
<path class="st3" d="M179.6,36.5c0.4,0,0.8,0.4,0.8,0.8c0,0,0,0,0,0c0,0.4-0.4,0.8-0.8,0.8c0,0,0,0,0,0c-0.4,0-0.8-0.3-0.8-0.8
	c0,0,0,0,0,0C178.8,36.9,179.1,36.5,179.6,36.5C179.6,36.5,179.6,36.5,179.6,36.5z M179,46.5v-7h1.2v7H179z"/>
<path class="st3" d="M188.4,45.2l0.3,0.5c-0.6,0.7-1.5,1.1-2.5,1.1c-1.9-0.1-3.4-1.7-3.3-3.5c0,0,0-0.1,0-0.1c0-2.4,1.6-3.8,3.3-3.8
	c0.8,0,1.6,0.3,2.3,0.8l-0.2,0.9c-0.6-0.4-1.3-0.6-2-0.6c-1.2,0.1-2.2,1.2-2.1,2.4c0,0,0,0.1,0,0.1c0,1.7,0.9,2.8,2.5,2.8
	C187.3,45.7,187.9,45.5,188.4,45.2z"/>
<path class="st3" d="M193.5,39.4c2.1,0,2.7,1.2,2.7,3.1v4.1h-0.7l-0.4-0.8c-0.6,0.7-1.4,1.1-2.3,1.1c-1.1,0.1-2.1-0.7-2.2-1.8
	c0-0.1,0-0.2,0-0.3c0-1.9,1.9-2.2,3.4-2.2h1v-0.3c0-1.3-0.5-1.8-1.7-1.8c-0.7,0-1.4,0.2-2,0.6l-0.2-0.9
	C191.7,39.7,192.6,39.4,193.5,39.4z M195,43.4h-0.8c-1,0-2.4,0.1-2.4,1.3c0,0.7,0.5,1.2,1.4,1.2c0.7,0,1.4-0.3,1.8-0.9V43.4z"/>
<path class="st2" d="M77.8,17.2c0,1.8,8.8,1,8.8,7c0,3.4-3.4,5.2-7.1,5.2c-4.3,0-6.8-1.7-7.3-2.3l1.7-2.8c1.5,0.7,3.1,1.1,4.8,1.2
	c1.5,0,2.7-0.3,2.7-1.3c0-2-8.9-0.9-8.9-6.9c0-3,2.6-5.4,7.5-5.4c2-0.1,4,0.5,5.7,1.6l-1.1,3.6c-1.3-0.6-2.8-1-4.3-1
	C78.2,16.1,77.8,16.8,77.8,17.2z"/>
<path class="st2" d="M99.9,12.2h5.3l-6.1,16.6h-5.7l-6.2-16.7h5.3L96.3,24L99.9,12.2z"/>
<path class="st2" d="M112.2,16v2.8h5.5v3.5h-5.5v3h7.7v3.7h-12.7V12.2h12.1V16H112.2z"/>
<path class="st2" d="M131.5,16v12.9h-5V16h-5.2v-3.7h15.3V16H131.5z"/>
<path class="st2" d="M144.1,28.9h-5V12.2h5V28.9z"/>
<path class="st2" d="M165.1,12.2h5.3l-6.1,16.6h-5.7l-6.1-16.6h5.3l3.8,11.8L165.1,12.2z"/>
<path class="st2" d="M178,28.9h-5V12.2h5V28.9z"/>
<path class="st2" d="M189.8,28.9h-7.7V12.2h7.9c6.9,0,9.1,3.9,9.1,8.4C199,24.6,196.4,28.9,189.8,28.9z M188.6,16h-1.5v9.2h1.3
	c3.8,0,5.5-1.3,5.5-4.7C193.9,17.7,192.6,16,188.6,16z"/>
</svg>
