<?xml version="1.0" encoding="utf-8"?>
<!-- Generator: Adobe Illustrator 21.1.0, SVG Export Plug-In . SVG Version: 6.00 Build 0)  -->
<svg version="1.1" id="Layer_1" xmlns="http://www.w3.org/2000/svg" xmlns:xlink="http://www.w3.org/1999/xlink" x="0px" y="0px"
	 viewBox="0 0 18 17.3" style="enable-background:new 0 0 18 17.3;" xml:space="preserve">
<style type="text/css">
	.st0{fill:#00B1F0;}
</style>
<path class="st0" d="M9,0.7c-4.4,0-8,3.6-8,8s3.6,8,8,8s8-3.6,8-8S13.4,0.7,9,0.7z M9.8,12.8c0,0.4-0.4,0.8-0.8,0.8
	c-0.5,0-0.8-0.4-0.8-0.8v-5C8.2,7.4,8.5,7,9,7c0.5,0,0.8,0.4,0.8,0.8V12.8z M9,5.4C8.5,5.4,8.2,5,8.2,4.5S8.5,3.7,9,3.7
	c0.5,0,0.8,0.4,0.8,0.8S9.5,5.4,9,5.4z"/>
</svg>
